<svg xmlns="http://www.w3.org/2000/svg" fill="none" viewBox="0 0 92 83"><path fill="#3d4729" fill-opacity=".5" d="M82.8 0c2.44 0 4.78.972 6.505 2.701A9.23 9.23 0 0 1 92 9.222v64.556c0 2.446-.97 4.791-2.695 6.52A9.2 9.2 0 0 1 82.8 83H9.2c-2.44 0-4.78-.972-6.505-2.701A9.23 9.23 0 0 1 0 73.778V9.222c0-2.446.97-4.791 2.695-6.52A9.2 9.2 0 0 1 9.2 0zm0 9.222H9.2v46.572l22.977-23.027a5.75 5.75 0 0 1 4.066-1.69 5.74 5.74 0 0 1 4.067 1.69l18.699 18.748 5.695-5.708a5.75 5.75 0 0 1 4.066-1.689 5.74 5.74 0 0 1 4.066 1.689l9.964 9.992zm-20.7 9.222c1.83 0 3.585.73 4.879 2.026a6.925 6.925 0 0 1 0 9.782 6.89 6.89 0 0 1-9.758 0 6.925 6.925 0 0 1 0-9.782 6.9 6.9 0 0 1 4.879-2.026"/></svg>