<svg xmlns="http://www.w3.org/2000/svg" fill="none" viewBox="-8 -8 48 48"><g clip-path="url(#a)"><path fill="#899463" d="M26.919 0H5.08A5.087 5.087 0 0 0 0 5.082v21.837A5.087 5.087 0 0 0 5.082 32h21.837A5.087 5.087 0 0 0 32 26.918V5.082A5.087 5.087 0 0 0 26.919 0m-12.43 19.014-4.579 4.58h2.287a1 1 0 1 1 0 2h-4.7a1 1 0 0 1-1-1v-4.7a1 1 0 0 1 2 0v2.286l4.579-4.58a1 1 0 0 1 1.414 1.414m11.195-6.907a1 1 0 0 1-2 0V9.82l-4.58 4.58a.995.995 0 0 1-1.09.217 1 1 0 0 1-.324-1.631l4.58-4.58h-2.287a1 1 0 1 1 0-2h4.7a1 1 0 0 1 1 1z"/></g><defs><clipPath id="a"><path fill="#899463" d="M0 0h32v32H0z"/></clipPath></defs></svg>