<svg xmlns="http://www.w3.org/2000/svg" fill="none" viewBox="-5 -5 48 48"><path fill="#899463" d="M32.063 17.122a5.9 5.9 0 0 0-2.376-.497H8.314a5.944 5.944 0 0 0-5.937 5.938v8.312a1.188 1.188 0 0 0 2.374 0v-.594a.6.6 0 0 1 .594-.593h27.312a.6.6 0 0 1 .594.593v.594a1.188 1.188 0 0 0 2.375 0v-8.312a5.95 5.95 0 0 0-3.562-5.44M27.906 5.938H10.094a4.156 4.156 0 0 0-4.156 4.156v5.344a.297.297 0 0 0 .379.284 7 7 0 0 1 1.995-.284h.314a.297.297 0 0 0 .297-.264 2.375 2.375 0 0 1 2.358-2.111h4.156a2.375 2.375 0 0 1 2.36 2.111.297.297 0 0 0 .297.264h1.816a.297.297 0 0 0 .297-.264 2.375 2.375 0 0 1 2.355-2.111h4.157a2.374 2.374 0 0 1 2.36 2.111.297.297 0 0 0 .297.264h.311a7 7 0 0 1 1.996.285.297.297 0 0 0 .38-.286v-5.343a4.156 4.156 0 0 0-4.157-4.156"/></svg>