<svg xmlns="http://www.w3.org/2000/svg" fill="none" viewBox="-6.5 0 48 34"><path fill="#899463" d="M19.122 12.075 26.77 4.54l-2.696-2.656-4.952 4.879V0h-3.825v6.763l-4.952-4.88L7.649 4.54l7.648 7.535v2.996h-3.04L4.608 7.535l-2.696 2.657 4.953 4.879H0v3.767h6.865l-4.953 4.88 2.696 2.656 7.649-7.536h3.04v2.996L7.65 29.369l2.696 2.656 4.952-4.879v6.763h3.825v-6.763l4.952 4.88 2.696-2.657-7.648-7.535v-2.996h3.04l7.649 7.536 2.696-2.656-4.953-4.88h6.865v-3.767H19.122z"/><path fill="#899463" d="M15.296 12.075 7.648 4.54l2.696-2.656 4.952 4.879V0h3.825v6.763l4.952-4.88L26.77 4.54l-7.648 7.535v2.996h3.04l7.649-7.536 2.696 2.657-4.953 4.879h6.865v3.767h-6.865l4.953 4.88-2.696 2.656-7.65-7.536h-3.04v2.996l7.65 7.535-2.697 2.656-4.952-4.879v6.763h-3.825v-6.763l-4.952 4.88-2.696-2.657 7.648-7.535v-2.996h-3.04l-7.649 7.536-2.696-2.656 4.953-4.88H-.001v-3.767h15.297z"/></svg>