<svg xmlns="http://www.w3.org/2000/svg" fill="none" viewBox="0 0 24 27"><path fill="#899463" d="M7.5 3.004a1.5 1.5 0 1 0 0 3 1.5 1.5 0 0 0 0-3m-4.245 0a4.502 4.502 0 0 1 8.49 0H22.5a1.5 1.5 0 0 1 0 3H11.745a4.501 4.501 0 0 1-8.49 0H1.5a1.5 1.5 0 0 1 0-3zm13.245 9a1.5 1.5 0 1 0 0 3 1.5 1.5 0 0 0 0-3m-4.245 0a4.501 4.501 0 0 1 8.49 0H22.5a1.5 1.5 0 1 1 0 3h-1.755a4.502 4.502 0 0 1-8.49 0H1.5a1.5 1.5 0 0 1 0-3zm-4.755 9a1.5 1.5 0 1 0 0 3 1.5 1.5 0 0 0 0-3m-4.245 0a4.501 4.501 0 0 1 8.49 0H22.5a1.5 1.5 0 1 1 0 3H11.745a4.502 4.502 0 0 1-8.49 0H1.5a1.5 1.5 0 0 1 0-3z"/></svg>