<svg xmlns="http://www.w3.org/2000/svg" fill="none" viewBox="0 0 61 61"><g clip-path="url(#a)"><path fill="#3d4729" d="M32.495 37.466c8.86-1.488 15.238-11.148 15.238-19.88C47.733 7.89 39.843 0 30.147 0 20.45 0 12.56 7.889 12.56 17.586c0 8.732 6.377 18.393 15.238 19.88L25.374 40.7a1.256 1.256 0 0 0 1.004 2.01h2.419c-.172 1.067-.562 1.755-.997 2.517-.666 1.166-1.422 2.487-1.422 5.02 0 2.531.756 3.852 1.422 5.019.585 1.024 1.09 1.909 1.09 3.773a1.255 1.255 0 1 0 2.513 0c0-2.532-.756-3.853-1.422-5.02-.585-1.024-1.09-1.908-1.09-3.773 0-1.864.505-2.749 1.09-3.773.542-.95 1.121-2.04 1.326-3.764h2.608a1.257 1.257 0 0 0 1.005-2.01zM25.68 8.583c-3.08 1.536-5.145 4.483-5.521 7.885a1.256 1.256 0 0 1-2.498-.277 12.52 12.52 0 0 1 6.898-9.855 1.257 1.257 0 1 1 1.121 2.247"/><path fill="#d9d1be" d="M60.295 25.123c0-5.408-3.48-10.186-8.66-11.888A1.255 1.255 0 0 0 50 14.614c.168 1.125.246 2.07.246 2.972 0 6.747-3.465 13.953-8.827 18.36a1.258 1.258 0 0 0 .033 1.967c1.37 1.05 2.854 1.732 4.363 2.056l-.461.922a1.25 1.25 0 0 0 .512 1.66c.187.103.398.158.612.158h.134c.262 1.231.874 2.016 1.397 2.67.59.738.981 1.225.981 2.355s-.39 1.617-.981 2.355c-.682.854-1.531 1.915-1.531 3.926a1.255 1.255 0 0 0 2.417.48c.063-.152.095-.315.095-.48 0-1.13.39-1.617.981-2.355.683-.854 1.531-1.915 1.531-3.926 0-2.01-.849-3.072-1.53-3.925-.328-.41-.584-.751-.756-1.158.341-.066.655-.236.842-.538a1.25 1.25 0 0 0 .056-1.221l-.463-.927c6.04-1.327 10.644-8.655 10.644-14.842M20.182 36.92c-6.06-4.232-10.133-12.002-10.133-19.333 0-2.556.49-5.071 1.458-7.475A1.255 1.255 0 0 0 9.91 8.462C3.983 10.627 0 16.313 0 22.611c0 7.5 5.605 16.104 13.134 17.401l-.44.88a1.25 1.25 0 0 0 .055 1.221c.202.327.548.512.923.558-.178.734-.504 1.26-.9 1.854-.653.98-1.467 2.2-1.467 4.465s.814 3.485 1.468 4.465c.583.876 1.045 1.568 1.045 3.072a1.255 1.255 0 1 0 2.512 0c0-2.264-.813-3.485-1.467-4.465-.584-.876-1.045-1.568-1.045-3.072s.461-2.196 1.045-3.072c.518-.776 1.12-1.73 1.353-3.209h.114a1.256 1.256 0 0 0 1.124-1.818l-.456-.91c1-.177 1.998-.441 2.983-.887a1.256 1.256 0 0 0 .2-2.175"/></g><defs><clipPath id="a"><path fill="#fff" d="M0 0h60.295v60.295H0z"/></clipPath></defs></svg>