<svg xmlns="http://www.w3.org/2000/svg" fill="none" viewBox="11 10.5 32 32"><path fill="#899463" fill-rule="evenodd" d="M26.937 37.305c-2.294 0-3.36-.337-5.213-1.682-1.171 1.514-4.882 2.696-5.044.673 0-1.52-.335-2.803-.715-4.204-.452-1.726-.965-3.648-.965-6.434C15 19.005 20.435 14 26.875 14c6.446 0 11.496 5.252 11.496 11.72a11.57 11.57 0 0 1-3.331 8.167 11.47 11.47 0 0 1-8.103 3.418m.095-17.554c-3.137-.163-5.58 2.017-6.122 5.436-.447 2.83.346 6.278 1.021 6.457.324.078 1.139-.583 1.646-1.093.84.583 1.818.932 2.835 1.014a5.96 5.96 0 0 0 4.26-1.512 6 6 0 0 0 1.985-4.076 6 6 0 0 0-1.546-4.265 5.96 5.96 0 0 0-4.08-1.956z" clip-rule="evenodd"/></svg>