<svg xmlns="http://www.w3.org/2000/svg" fill="none" viewBox="11 10.5 32 32"><g clip-path="url(#a)"><path fill="#899463" fill-rule="evenodd" d="M40.358 18.939c.194-.637 0-1.106-.927-1.106h-3.063c-.779 0-1.138.405-1.333.852 0 0-1.558 3.728-3.764 6.15-.714.703-1.038.925-1.428.925-.195 0-.488-.222-.488-.86v-5.961c0-.765-.214-1.106-.863-1.106h-4.816c-.486 0-.78.355-.78.692 0 .724 1.104.892 1.218 2.932v4.43c0 .973-.179 1.149-.569 1.149-1.038 0-3.564-3.747-5.063-8.033-.29-.834-.584-1.17-1.367-1.17H14.05c-.875 0-1.05.405-1.05.852 0 .795 1.038 4.748 4.836 9.976 2.532 3.57 6.096 5.505 9.343 5.505 1.947 0 2.187-.429 2.187-1.17v-2.698c0-.86.184-1.032.802-1.032.454 0 1.233.224 3.05 1.945 2.077 2.04 2.419 2.955 3.588 2.955h3.062c.875 0 1.314-.429 1.062-1.278-.278-.845-1.27-2.071-2.584-3.526-.714-.828-1.785-1.72-2.11-2.168-.454-.572-.325-.828 0-1.338 0 0 3.733-5.164 4.121-6.917" clip-rule="evenodd"/></g><defs><clipPath id="a"><path fill="#fff" d="M13 12h28v28H13z"/></clipPath></defs></svg>