<svg xmlns="http://www.w3.org/2000/svg" fill="none" viewBox="-3.5 0 24 21"><path fill="#ff1616" d="m11.84 1.516.301 2.09h4.086a.773.773 0 0 1 0 1.546h-.792l-.9 10.493c-.054.639-.098 1.164-.17 1.589-.072.442-.182.837-.397 1.204a3.35 3.35 0 0 1-1.444 1.326c-.383.183-.787.258-1.234.293-.43.034-.956.034-1.597.034H7.307c-.64 0-1.167 0-1.597-.034-.447-.035-.851-.11-1.234-.293a3.35 3.35 0 0 1-1.444-1.326c-.216-.366-.324-.762-.398-1.204-.07-.426-.115-.95-.17-1.589L1.565 5.152H.773a.773.773 0 0 1 0-1.546h4.086l.302-2.09.011-.063C5.36.639 6.058 0 6.934 0h3.132c.876 0 1.574.639 1.762 1.453zm-5.42 2.09h4.16l-.265-1.83c-.05-.172-.175-.23-.25-.23h-3.13c-.075 0-.2.058-.25.23zM7.727 8.5a.773.773 0 1 0-1.545 0v5.152a.773.773 0 1 0 1.545 0zm3.091 0a.773.773 0 1 0-1.545 0v5.152a.773.773 0 1 0 1.545 0z"/></svg>