<svg xmlns="http://www.w3.org/2000/svg" fill="none" viewBox="11 10.5 32 32"><path stroke="#899463" stroke-width="2" d="M34.8 36.8a5.2 5.2 0 1 0 0-10.4 5.2 5.2 0 0 0 0 10.4ZM19.2 36.8a5.2 5.2 0 1 0 0-10.4 5.2 5.2 0 0 0 0 10.4Z"/><path stroke="#899463" stroke-linecap="round" stroke-width="2" d="m29.6 31.878-.853-.304a5.2 5.2 0 0 0-3.494 0l-.853.304M14 31.6l.992-10.914c.15-1.643.225-2.464.706-3.071.48-.607 1.263-.869 2.829-1.391L19.2 16M40 31.6l-.992-10.914c-.15-1.643-.224-2.464-.705-3.071-.48-.607-1.264-.869-2.83-1.391L34.8 16"/></svg>