<svg xmlns="http://www.w3.org/2000/svg" fill="none" viewBox="0 0 408 528"><path fill="#eceef2" d="M276.02 176.14c-1.033 4.133.689 5.97 2.068 7.693 13.898 18.946 27.453 38.236 45.946 53.278 1.378 1.148 2.527 2.756 3.561 4.249s-.115 4.018-2.068 4.363c-5.284 1.033-10.338.459-15.047-2.297-5.284-3.1-10.453-6.315-15.622-9.53-1.838-1.148-2.986-3.56-5.743-2.756-.23.46-.574 1.034-.46 1.263 12.636 23.195 26.764 45.241 47.669 62.235 4.71 3.789 9.879 7.234 14.818 10.793 1.149.804 1.953 2.182 1.149 3.675-.345.688-1.379 1.263-2.183 1.607-4.939 1.722-9.993 1.952-15.277 1.263-11.486-1.493-21.824-5.626-31.588-11.597-1.608-.919-3.101-2.182-4.939-2.756-1.149-.459-2.872-.459-3.905.115-1.608.804-.69 2.526-.115 3.674 7.236 12.631 15.047 25.032 25.04 35.711 16.541 17.682 35.379 32.265 57.088 43.173 2.527 1.263 5.054 2.526 7.466 4.019 1.034.689 1.953 1.952 2.298 3.1.574 1.838-1.264 2.297-2.412 2.871-4.25 2.296-8.96 2.641-13.669 2.985-12.291 1.034-24.467.574-36.068-4.133-1.378-.574-2.872-.345-3.331 1.148-.23.689.115 1.837.574 2.526 14.818 24.343 34.689 43.059 61.108 54.426 4.71 2.067 9.534 4.019 14.129 6.201.689.344 1.378 1.493 1.493 2.182 0 .689-.689 1.837-1.264 2.066-3.905 1.493-7.925 3.101-11.945 4.019-44.453 9.99-87.757 7.808-129.568-11.597a64 64 0 0 0-2.642-1.033c-1.723-.574-3.676 1.378-3.216 3.215 1.953 8.841 6.088 16.764 9.763 24.916 1.379 2.986 2.872 5.857 4.021 8.957 1.148 3.1-1.264 5.856-4.48 5.052-4.02-1.033-8.156-2.297-12.061-3.904-12.061-5.282-24.581-9.645-34.804-18.372-1.034-.918-2.642-1.148-3.79-.115-.575.46-.805 1.723-.69 2.526 2.298 16.076 7.811 30.888 17.46 44.093 2.412 3.215 7.121 6.545 4.25 10.793-2.068 3.1-7.007 1.263-10.683.804-15.047-1.722-29.979-1.608-45.027-.459-2.756.229-5.628.229-8.385.115-2.757-.115-4.25-2.756-2.871-4.938 1.608-2.296 3.331-4.478 5.054-6.775 9.189-12.86 14.358-27.442 16.31-43.058.115-1.263-.459-2.641-.804-3.904-3.446-.689-5.513 1.492-7.81 3.1-10.223 7.004-21.595 11.367-32.852 16.19-3.79 1.607-8.155 2.411-12.175 3.215-3.332.689-5.169-1.837-3.906-5.282 1.149-3.1 2.757-5.971 4.02-8.956 3.217-7.808 6.318-15.731 9.304-23.539.46-1.148.23-2.871-.344-3.904-.804-1.378-2.297-1.148-3.676-.459-42.27 21.701-86.723 21.931-132.094 12.975-4.595-.919-9.42-1.263-13.095-4.708.23-2.985 2.527-3.56 4.595-4.363 11.027-4.249 21.71-8.957 31.587-15.501 17.575-11.598 31.014-27.214 42.73-44.437.46-.689.23-1.723.345-2.641-2.068-2.297-4.365-.574-6.318.115-13.21 4.593-26.763 4.248-40.432 2.641-2.297-.23-4.595-1.149-6.662-1.952-1.608-.689-3.676-1.149-4.02-3.445-.345-2.297 1.493-3.215 3.1-4.134 7.811-4.248 15.852-8.152 23.548-12.745 22.514-13.32 41.926-30.199 56.513-52.13 2.872-4.364 5.514-8.727 7.926-13.32 2.642-4.937 2.872-8.612.919-8.841-3.216-.345-5.284 1.722-7.351 3.445-9.42 7.693-20.446 11.367-32.277 13.204-4.25.574-8.5.919-12.52-.574-1.609-.574-3.791-1.493-4.48-2.87-.92-1.838.919-3.33 2.527-4.479 5.283-3.904 10.797-7.578 15.851-11.826 10.912-9.072 20.216-19.635 27.912-31.577 5.858-9.071 11.602-18.257 17.46-27.328.689-1.148 1.493-2.871-.23-3.674-.919-.46-2.757.114-3.561.803-6.203 5.053-12.635 9.76-20.216 12.746-4.48 1.837-8.96 2.87-13.784 1.837-2.297-.459-3.56-3.789-1.953-5.512 1.609-1.722 3.331-3.215 5.17-4.822 16.31-14.468 29.405-31.577 42.27-49.03 1.837-2.526 4.25-5.052 3.79-9.645-4.02 1.607-7.811 3.1-11.486 4.708-8.5 3.559-17.46 3.559-26.42 2.526-1.837-.23-3.675-.919-5.283-1.723-2.182-1.033-4.595-2.296-4.824-4.707-.23-2.756 2.297-3.675 4.48-4.593 29.749-11.597 51.229-32.725 67.31-59.594 17.919-30.084 30.784-62.35 40.433-95.878 1.723-5.856 3.56-11.597 5.283-17.338 4.365.46 4.48 3.56 5.399 6.086 5.743 16.42 11.257 32.954 17.23 49.259 7.466 20.324 16.885 39.844 28.371 58.216 16.541 26.409 36.527 49.029 67.082 59.708.804.344 1.608 1.033 2.297 1.493 1.378.918 1.378 3.674-.115 4.822-3.331 2.871-7.351 4.134-11.601 4.478-7.122.575-14.129-.114-20.791-2.64-4.25-1.608-8.5-3.33-13.784-5.282"/></svg>