<svg xmlns="http://www.w3.org/2000/svg" fill="none" viewBox="0 0 24 28"><path fill="#899463" d="M20.7 0H3.3C2.425 0 1.585.338.967.94A3.16 3.16 0 0 0 0 3.208v21.584c0 .85.348 1.667.967 2.268.618.602 1.458.94 2.333.94h17.4c.875 0 1.715-.338 2.334-.94A3.16 3.16 0 0 0 24 24.792V3.208c0-.85-.348-1.667-.966-2.268A3.35 3.35 0 0 0 20.7 0M9.336 21.84a.88.88 0 0 1 .286.625.85.85 0 0 1-.263.634.9.9 0 0 1-.652.256.92.92 0 0 1-.643-.278l-.864-.84-.864.84a.9.9 0 0 1-.636.258.92.92 0 0 1-.636-.258.87.87 0 0 1-.264-.62.85.85 0 0 1 .264-.618L5.927 21l-.864-.84a.88.88 0 0 1-.264-.619.85.85 0 0 1 .264-.619.9.9 0 0 1 .636-.256.92.92 0 0 1 .637.256l.864.84.864-.84a.9.9 0 0 1 .637-.256.92.92 0 0 1 .636.256.87.87 0 0 1 .264.62.85.85 0 0 1-.264.618l-.864.84zM8.7 14.875h-.6v.583a.86.86 0 0 1-.264.62.91.91 0 0 1-.636.255.91.91 0 0 1-.636-.256.86.86 0 0 1-.264-.619v-.583h-.6a.91.91 0 0 1-.636-.256A.86.86 0 0 1 4.8 14c0-.232.095-.455.264-.619a.91.91 0 0 1 .636-.256h.6v-.583c0-.232.095-.455.264-.62a.91.91 0 0 1 .636-.255c.239 0 .468.092.636.256a.86.86 0 0 1 .264.619v.583h.6c.239 0 .468.092.636.256A.86.86 0 0 1 9.6 14a.86.86 0 0 1-.264.619.91.91 0 0 1-.636.256m9.6 8.458h-3a.91.91 0 0 1-.636-.256.86.86 0 0 1-.264-.619c0-.232.095-.454.264-.618a.91.91 0 0 1 .636-.257h3c.239 0 .468.093.636.257a.86.86 0 0 1 .264.618.86.86 0 0 1-.264.62.91.91 0 0 1-.636.255m0-2.916h-3a.91.91 0 0 1-.636-.257.86.86 0 0 1-.264-.618c0-.232.095-.455.264-.62a.91.91 0 0 1 .636-.255h3c.239 0 .468.092.636.256a.86.86 0 0 1 .264.619.86.86 0 0 1-.264.618.91.91 0 0 1-.636.257m0-5.25h-3a.91.91 0 0 1-.636-.257.86.86 0 0 1-.264-.618c0-.232.095-.455.264-.62a.91.91 0 0 1 .636-.255h3c.239 0 .468.092.636.256a.86.86 0 0 1 .264.619.86.86 0 0 1-.264.618.91.91 0 0 1-.636.257m2.1-7.875c0 1.126-.942 2.041-2.1 2.041H5.7c-1.158 0-2.1-.915-2.1-2.041v-1.75c0-1.126.942-2.042 2.1-2.042h12.6c1.158 0 2.1.916 2.1 2.042z"/></svg>