<svg xmlns="http://www.w3.org/2000/svg" fill="none" viewBox="-5 -5 48 48"><path fill="#899463" d="M17.813 21.375a4.75 4.75 0 0 1 4.75 4.75c0 2.292-1.406 4.109-3.352 5.296-1.945 1.183-4.545 1.829-7.336 1.829-2.79 0-5.391-.646-7.336-1.829-1.948-1.187-3.351-3.004-3.351-5.296a4.75 4.75 0 0 1 4.75-4.75zm15.8.019a3.563 3.563 0 0 1 3.2 3.544c0 1.83-1.117 3.346-2.618 4.346-1.508 1.007-3.527 1.591-5.695 1.591-1.663 0-3.23-.347-4.553-.957.613-1.1.988-2.366.988-3.793a7.1 7.1 0 0 0-1.779-4.7 4 4 0 0 1 .594-.05h9.5zM11.875 5.938a6.531 6.531 0 1 1 0 13.062 6.531 6.531 0 0 1 0-13.062m16.63 2.367A5.349 5.349 0 1 1 28.73 19a5.349 5.349 0 0 1-.225-10.695"/></svg>