<svg xmlns="http://www.w3.org/2000/svg" fill="none" viewBox="0 0 202 78"><g fill="#3d4729" clip-path="url(#a)"><path d="M98.074 39.193a7.3 7.3 0 0 1-3.159-.724 7.3 7.3 0 0 1-2.535-2.026v6.01h-1.626V24.497h1.626v2.742a7.3 7.3 0 0 1 2.928-2.189 7.29 7.29 0 0 1 7.023.824 7.34 7.34 0 0 1 2.346 2.807 7.37 7.37 0 0 1-.412 7.086 7.3 7.3 0 0 1-2.656 2.514 7.3 7.3 0 0 1-3.535.913zm0-1.633a5.7 5.7 0 0 0 3.163-.963 5.7 5.7 0 0 0 2.097-2.565 5.74 5.74 0 0 0-1.235-6.23 5.68 5.68 0 0 0-6.204-1.238 5.7 5.7 0 0 0-2.555 2.105 5.73 5.73 0 0 0-.96 3.175 5.72 5.72 0 0 0 1.663 4.046 5.68 5.68 0 0 0 4.03 1.67M114.175 24.498a7.26 7.26 0 0 1 3.157.72 7.3 7.3 0 0 1 2.536 2.022v-2.742h1.626v14.695h-1.626v-2.75a7.3 7.3 0 0 1-2.928 2.188 7.29 7.29 0 0 1-7.02-.824 7.34 7.34 0 0 1-2.345-2.806 7.37 7.37 0 0 1 .411-7.084 7.3 7.3 0 0 1 2.655-2.514 7.3 7.3 0 0 1 3.534-.914zm0 1.633a5.68 5.68 0 0 0-3.163.963 5.733 5.733 0 0 0-.863 8.794 5.672 5.672 0 0 0 6.205 1.238 5.7 5.7 0 0 0 2.555-2.105c.625-.94.959-2.046.959-3.176a5.71 5.71 0 0 0-3.513-5.284 5.7 5.7 0 0 0-2.18-.43M130.273 37.56h7.318v1.633h-7.318a7.3 7.3 0 0 1-5.237-2.118 7.369 7.369 0 0 1 0-10.458 7.32 7.32 0 0 1 5.237-2.12h7.318v1.634h-7.318a5.67 5.67 0 0 0-4.079 1.644 5.72 5.72 0 0 0-1.697 4.07 5.719 5.719 0 0 0 3.572 5.304 5.7 5.7 0 0 0 2.204.411M146.377 37.56h7.32v1.633h-7.32a7.3 7.3 0 0 1-5.116-2.185 7.366 7.366 0 0 1 0-10.326 7.3 7.3 0 0 1 5.116-2.185h7.32v1.633h-7.32a5.68 5.68 0 0 0-3.973 1.703 5.73 5.73 0 0 0 0 8.024 5.68 5.68 0 0 0 3.973 1.703M155.16 24.497h9.765a3.26 3.26 0 0 1 2.297.96c.609.611.953 1.44.955 2.306a3.25 3.25 0 0 1-.878 2.252 4.9 4.9 0 0 1 2.105 2.354 4.916 4.916 0 0 1-1.499 5.796 4.87 4.87 0 0 1-2.98 1.028h-9.765zm9.765 1.633h-8.133v3.265h8.133a1.634 1.634 0 0 0 0-3.265m-8.133 11.43h8.133c.862 0 1.69-.344 2.3-.957a3.273 3.273 0 0 0 0-4.619 3.25 3.25 0 0 0-2.3-.956h-8.133zM178.581 24.498c1.94.002 3.8.777 5.172 2.155a7.37 7.37 0 0 1 2.147 5.192v1.628h-12.785a5.7 5.7 0 0 0 2.056 2.955 5.66 5.66 0 0 0 3.41 1.128h7.319v1.633h-7.319a7.3 7.3 0 0 1-5.236-2.12 7.35 7.35 0 0 1-2.177-5.228 7.37 7.37 0 0 1 2.177-5.23 7.297 7.297 0 0 1 5.236-2.119zm5.692 7.347a5.73 5.73 0 0 0-1.696-3.988 5.68 5.68 0 0 0-7.993 0 5.73 5.73 0 0 0-1.696 3.988zM187.363 24.497H202v1.633h-6.505v13.063h-1.626V26.13h-6.506zM91.853 53.728a2.257 2.257 0 0 1 0-3.13 2.24 2.24 0 0 1 3.086 0 2.257 2.257 0 0 1 0 3.13 2.24 2.24 0 0 1-3.086 0m.287-2.842a1.85 1.85 0 0 0 0 2.555 1.833 1.833 0 0 0 2.512 0 1.845 1.845 0 0 0 0-2.555 1.834 1.834 0 0 0-2.512 0M104.292 50.144v.39h-1.453v3.665h-.404v-3.666h-1.456v-.39zM113.84 53.81v1.33h-.404v-.941h-3.406v.94h-.405v-1.33zm-3.437-.24a.94.94 0 0 0 .206-.625v-2.797h2.666v4.054h-.404v-3.668h-1.856v2.52c.004.299-.108.587-.311.804a1.05 1.05 0 0 1-.804.34h-.238v-.389h.154a.72.72 0 0 0 .589-.242zM121.749 51.952a1.18 1.18 0 0 1 .86.333 1.07 1.07 0 0 1 .344.81 1.025 1.025 0 0 1-.344.787 1.22 1.22 0 0 1-.86.317h-2.335v-4.055h.405v1.808zm-.081.389h-1.849v1.468h1.849a.96.96 0 0 0 .627-.207.64.64 0 0 0 .253-.507.68.68 0 0 0-.25-.539.93.93 0 0 0-.63-.215m2.011 1.858v-4.055h.401v4.055zM133.472 54.198h-.517l-1.382-1.712-1.373 1.712h-.522l1.614-2.032-1.614-2.032h.525l1.373 1.71 1.381-1.71h.517l-1.616 2.032zM95.279 58.001c-.168.17-.377.294-.607.359q-.49.138-.994.202a2.2 2.2 0 0 0-1.44.78q-.538.648-.61 1.76c.173-.328.438-.597.762-.775a2.2 2.2 0 0 1 1.103-.289 1.97 1.97 0 0 1 1.431.581 1.98 1.98 0 0 1 .577 1.437 1.95 1.95 0 0 1-.59 1.444 2.04 2.04 0 0 1-1.475.577 2.26 2.26 0 0 1-1.106-.275 1.87 1.87 0 0 1-.768-.779q-.34-.648-.34-1.639 0-2.75 2.4-3.187c.038 0 .103-.015.194-.032q.138-.025.19-.037l.173-.036q.121-.025.178-.04l.153-.041a1 1 0 0 0 .154-.053l.13-.064a.9.9 0 0 0 .226-.166zm-3.573 4a1.57 1.57 0 0 0 .513 1.183 1.75 1.75 0 0 0 1.248.486 1.583 1.583 0 0 0 1.632-1.622 1.54 1.54 0 0 0-.477-1.151 1.68 1.68 0 0 0-1.208-.455 1.75 1.75 0 0 0-1.223.446A1.44 1.44 0 0 0 91.707 62M101.408 62.082a1.7 1.7 0 0 0 1.721 1.588c.326.004.646-.083.925-.25.274-.165.492-.408.627-.698l.371.153a2.03 2.03 0 0 1-.775.877 2.1 2.1 0 0 1-1.148.324 2.05 2.05 0 0 1-1.514-.616 2.3 2.3 0 0 1-.008-3.131 2.01 2.01 0 0 1 1.481-.616 2.04 2.04 0 0 1 1.483.598 2.02 2.02 0 0 1 .61 1.505c0 .06 0 .148-.016.268zm3.369-.382a1.6 1.6 0 0 0-.52-1.14 1.67 1.67 0 0 0-1.169-.442 1.63 1.63 0 0 0-1.138.438 1.7 1.7 0 0 0-.542 1.144zM110.828 60.679a1.58 1.58 0 0 1 1.464-.95c.37-.012.732.116 1.013.359a1.14 1.14 0 0 1 .409.897 1 1 0 0 1-.15.53c-.1.16-.241.291-.408.378.193.092.356.238.468.42.113.183.172.395.171.61a.997.997 0 0 1-.429.824c-.31.227-.688.342-1.072.327a1.83 1.83 0 0 1-.974-.263 1.67 1.67 0 0 1-.65-.726l.357-.187c.105.235.28.432.5.563.232.14.498.212.768.207.277.01.549-.066.78-.218a.644.644 0 0 0 .311-.543.74.74 0 0 0-.275-.576 1 1 0 0 0-.67-.24h-.655v-.39h.655a.94.94 0 0 0 .613-.201.63.63 0 0 0 .251-.512.77.77 0 0 0-.295-.61 1.1 1.1 0 0 0-.731-.25 1.17 1.17 0 0 0-1.091.718zM127.217 60.617a1.88 1.88 0 0 0 0 2.555 1.69 1.69 0 0 0 1.228.498c.326.004.646-.083.925-.25.274-.165.492-.407.627-.698l.371.153a2.03 2.03 0 0 1-.775.877 2.1 2.1 0 0 1-1.148.324 2.06 2.06 0 0 1-1.515-.616 2.29 2.29 0 0 1 0-3.131 2.07 2.07 0 0 1 1.515-.616c.411-.004.814.111 1.16.333.344.218.616.534.78.908l-.373.154a1.58 1.58 0 0 0-.622-.725 1.73 1.73 0 0 0-.945-.264 1.67 1.67 0 0 0-1.228.498M139.351 59.875v4.055h-.404v-3.665h-2.5v3.665h-.404v-4.055zM145.418 62.081a1.695 1.695 0 0 0 1.721 1.589 1.76 1.76 0 0 0 .925-.25c.274-.165.492-.408.626-.698l.371.153a2.02 2.02 0 0 1-.776.877 2.1 2.1 0 0 1-1.146.324 2.06 2.06 0 0 1-1.515-.616 2.3 2.3 0 0 1-.618-1.564 2.3 2.3 0 0 1 .61-1.567 2.01 2.01 0 0 1 1.482-.616 2.05 2.05 0 0 1 1.483.598 2.02 2.02 0 0 1 .609 1.505c0 .06 0 .148-.016.268zm3.369-.38a1.624 1.624 0 0 0-.522-1.14 1.66 1.66 0 0 0-1.167-.443 1.62 1.62 0 0 0-1.138.438 1.7 1.7 0 0 0-.542 1.144zM154.846 63.93v-4.055h.403v3.666h2.263v-3.666h.405v3.666h2.262v-3.666h.404v4.055zM166.396 63.93v-4.055h.405V61.7h.218l1.841-1.825h.542l-2.024 2.032 2.024 2.032h-.542l-1.841-1.8h-.218v1.8zM178.381 63.93h-.404v-3.543l-2.479 3.543h-.51v-4.055h.404v3.467l2.48-3.467h.509zM38.847 78a38.77 38.77 0 0 1-26.926-10.889A39.07 39.07 0 0 1 0 39a39.14 39.14 0 0 1 4.626-18.443A38.96 38.96 0 0 1 17.387 6.5a38.73 38.73 0 0 1 36.587-3.433A39.13 39.13 0 0 1 69.57 15.13a39.1 39.1 0 0 1 7.328 15.976l.012.052A39.4 39.4 0 0 1 77.696 39c0 21.505-17.428 39-38.849 39m0-76.682a37.47 37.47 0 0 0-26.541 11.037A37.76 37.76 0 0 0 1.337 40.476c.779 20.303 17.255 36.207 37.51 36.207 20.693 0 37.536-16.91 37.536-37.683 0-2.53-.25-5.053-.751-7.532l-.012-.058a37.8 37.8 0 0 0-7.088-15.47 34 34 0 0 0-1.548-1.873 37.8 37.8 0 0 0-13.517-9.786 37.2 37.2 0 0 0-14.62-2.966z"/><path d="M20.35 64.766c-.103-.08-.21-.157-.313-.24q.154.123.313.24"/><path d="M27.475 46.087a43.5 43.5 0 0 0-15.877 8.532 32.3 32.3 0 0 0 8.05 9.604q.193.154.389.306c.102.08.21.158.313.24a31.9 31.9 0 0 0 10.878 5.235 237 237 0 0 1-3.692-23.328q-.031-.296-.062-.59M32.86 44.88c.214.862.516 1.946.943 3.176 0 0 .68 1.964 1.61 3.91 1.16 2.425 6.43 9.283 15.056 17.109a32.2 32.2 0 0 0 17.014-14.727 43.7 43.7 0 0 0-16.3-8.463 43.6 43.6 0 0 0-18.324-1.004M13.303 43.236q1.99.348 4.005.472c2.392.143 4.79.148 7.183.013 18.084-1.16 30.66-3.998 30.66-3.998q3.793-.853 7.842-1.96c2.87-.792 5.61-1.633 8.216-2.496a32.05 32.05 0 0 0-4.576-13.284 17.2 17.2 0 0 1-1.484 4.926s-5.252 10.923-28.965 14.605c-.65.1-1.302.187-1.905.256-1.652.191-2.961.277-2.961.277-1.1.078-2.197.128-3.298.12a57 57 0 0 1-2.397-.072 29 29 0 0 1-1.807-.145 35 35 0 0 1-3.492-.561c-2.09-.46-4.1-1.148-5.954-2.24-1.523-.891-2.85-2.01-3.786-3.537a6.85 6.85 0 0 1-.939-5.016c.228-1.236.755-2.344 1.461-3.375 1.213-1.773 2.808-3.144 4.581-4.32 2.651-1.753 5.033-2.681 7.162-3.46a43 43 0 0 1 3.532-1.121 804 804 0 0 0 3.256-10.078C16.707 12.382 7.34 24.535 7.34 38.89c0 .868.044 1.724.11 2.575.415.198.834.386 1.27.551 1.485.555 3.02.964 4.583 1.22"/><path d="M44.67 12.78a53 53 0 0 0-4.252 3.478c-1.17 1.07-8 7.412-11.241 15.225-1.739 4.184-1.822 7.134-1.82 8.205 0 .185 0 .34.006.439 1.586.17 3.186.137 4.764-.096.005-.305.021-.582.067-1.114.715-8.173 6.814-16.59 15.272-20.232 6.952-2.988 13.593-1.948 14.95-1.7q.266.047.5.093a32 32 0 0 0-1.513-1.533c-2.337-2.04-5.994-4.72-10.708-6.554a51 51 0 0 0-6.025 3.79"/></g><defs><clipPath id="a"><path fill="#fff" d="M0 0h202v78H0z"/></clipPath></defs></svg>