<svg xmlns="http://www.w3.org/2000/svg" fill="none" viewBox="0 0 61 61"><path fill="#3d4729" fill-rule="evenodd" d="M54.642 47.106H42.706a6.91 6.91 0 0 1-6.909-6.909v-5.025a6.91 6.91 0 0 1 6.91-6.908h11.935v-3.14a6.92 6.92 0 0 0-2.022-4.887 6.93 6.93 0 0 0-4.886-2.023H12.56a6.92 6.92 0 0 0-4.886 2.023 6.93 6.93 0 0 0-2.023 4.886v25.123a6.92 6.92 0 0 0 2.023 4.887 6.93 6.93 0 0 0 4.886 2.022h35.173a6.92 6.92 0 0 0 4.886-2.022 6.93 6.93 0 0 0 2.022-4.887zm0-15.074v11.305H42.706a3.14 3.14 0 0 1-3.14-3.14v-5.025a3.14 3.14 0 0 1 3.14-3.14zm-10.677 3.14a2.512 2.512 0 1 1 0 5.025 2.512 2.512 0 0 1 0-5.025m-3.547-19.47h7.316q.72 0 1.426.108l1.191-2.557a1.884 1.884 0 0 0-.91-2.503l-15.94-7.434A1.884 1.884 0 0 0 31 4.228l-1.35 2.892 8.292 3.864a4.4 4.4 0 0 1 2.477 4.718m-26.161 0H37.82a1.884 1.884 0 0 0-.94-2.44L20.94 5.83a1.884 1.884 0 0 0-2.503.912z" clip-rule="evenodd"/><path fill="#d9d1be" fill-rule="evenodd" d="M40.418 15.702h7.316q.72 0 1.426.108l1.191-2.557a1.884 1.884 0 0 0-.91-2.503l-15.94-7.434A1.884 1.884 0 0 0 31 4.228l-1.35 2.892 8.292 3.864a4.4 4.4 0 0 1 2.477 4.718m-26.161 0H37.82a1.884 1.884 0 0 0-.94-2.44L20.94 5.83a1.884 1.884 0 0 0-2.503.912z" clip-rule="evenodd"/></svg>