<svg xmlns="http://www.w3.org/2000/svg" fill="none" viewBox="0 0 61 61"><g clip-path="url(#a)"><path fill="#3d4729" d="M19.105 37.628a9 9 0 0 1-.768.032c-.7 0-1.382-.101-2.05-.256L.842 52.85a1.94 1.94 0 0 0 0 2.743l3.997 3.999a1.94 1.94 0 0 0 2.743 0l18.563-18.56-3.44-3.712zm40.646-24.745a1.854 1.854 0 0 0-2.623 0L47.12 22.892a2.425 2.425 0 0 1-3.428 0 2.425 2.425 0 0 1 0-3.423l9.96-9.958a1.93 1.93 0 0 0 0-2.729 1.93 1.93 0 0 0-2.73 0l-9.955 9.957a2.421 2.421 0 1 1-3.427-3.424L47.548 3.308A1.857 1.857 0 1 0 44.92.68L33.66 11.94c-2.707 2.709-3.562 6.51-2.685 9.97l7.547 7.549c3.46.873 7.264.018 9.968-2.689l11.26-11.26a1.856 1.856 0 0 0 0-2.627"/><path fill="#d9d1be" d="M5.059 1.698a2.042 2.042 0 0 0-3.282.555A17.79 17.79 0 0 0 5.21 22.581l9.578 9.577a5.01 5.01 0 0 0 3.973 1.452l5.56-.474 24.25 26.159a2.05 2.05 0 0 0 1.46.654h.035c.543 0 1.063-.215 1.449-.598l4.153-4.154a2.04 2.04 0 0 0 .598-1.444c0-.541-.215-1.061-.597-1.444z"/></g><defs><clipPath id="a"><path fill="#fff" d="M0 0h60.295v60.295H0z"/></clipPath></defs></svg>