<svg xmlns="http://www.w3.org/2000/svg" fill="none" viewBox="0 0 61 61"><g clip-path="url(#a)"><path fill="#3d4729" d="M30.13 7.948C16.989-3.547.277 6.553.004 20.245c-.07 3.49.938 6.888 2.943 10.022h12.996l2.311-3.853c.672-1.119 2.296-1.155 3.005-.04l4.877 7.665 7.11-15.009c.62-1.31 2.467-1.35 3.15-.08l6.095 11.317h14.825C68.297 13.103 46.593-6.451 30.131 7.947"/><path fill="#d9d1be" d="m39.88 32.87-4.938-9.17-6.983 14.741c-.594 1.254-2.342 1.363-3.087.192l-5.06-7.951-1.355 2.26a1.77 1.77 0 0 1-1.515.857H5.74c.351.367-1.52-1.5 23.145 23.037a1.766 1.766 0 0 0 2.491 0c24.286-24.16 22.794-22.67 23.145-23.037H41.435a1.77 1.77 0 0 1-1.555-.929"/></g><defs><clipPath id="a"><path fill="#fff" d="M0 0h60.295v60.295H0z"/></clipPath></defs></svg>