<svg xmlns="http://www.w3.org/2000/svg" fill="none" viewBox="0 0 173 28"><path fill="#fff" d="M45.991 13.798c0 7.57-6.155 13.797-13.797 13.797-7.571 0-13.798-6.227-13.798-13.797S24.553 0 32.124 0c7.713 0 13.868 6.227 13.868 13.798"/><path fill="#fff" d="M27.524 13.868c0-.99-.141-1.981-.283-2.9h-8.49c.07-.496.212-.92.353-1.487h7.571c-.141-.495-.354-.99-.566-1.486H19.67c.212-.495.495-.92.778-1.485h4.883a9.7 9.7 0 0 0-1.062-1.486h-2.688c.424-.496.849-.92 1.415-1.415C20.59 1.344 17.336 0 13.726 0 6.227.212 0 6.227 0 13.798s6.156 13.797 13.798 13.797c3.608 0 6.792-1.415 9.269-3.609.495-.424.92-.92 1.415-1.486h-2.83c-.354-.424-.708-.92-.991-1.415h4.811a7.3 7.3 0 0 0 .779-1.486h-6.44a7.2 7.2 0 0 1-.565-1.485h7.57c.425-1.274.708-2.69.708-4.246"/><path fill="#252525" d="m18.68 17.335.212-1.273c-.071 0-.213.07-.354.07-.495 0-.566-.283-.495-.424l.424-2.547h.778l.213-1.415h-.708l.142-.85h-1.486s-.85 4.812-.85 5.378c0 .849.496 1.274 1.203 1.274.425 0 .779-.142.92-.213M19.176 15c0 2.052 1.415 2.547 2.547 2.547 1.061 0 1.557-.212 1.557-.212l.283-1.415s-.779.354-1.557.354c-1.627 0-1.344-1.203-1.344-1.203h2.971s.213-.92.213-1.344c0-.92-.496-2.123-2.123-2.123-1.415-.071-2.547 1.556-2.547 3.396m2.547-2.123c.778 0 .637.92.637.991h-1.628c.071-.07.213-.99.991-.99M30.99 17.335l.283-1.628s-.707.354-1.273.354c-.991 0-1.486-.778-1.486-1.698 0-1.769.849-2.689 1.91-2.689.708 0 1.345.425 1.345.425l.212-1.557s-.85-.354-1.698-.354c-1.699 0-3.326 1.486-3.326 4.246 0 1.84.85 3.042 2.618 3.042.637.071 1.415-.141 1.415-.141M10.683 11.533a5.7 5.7 0 0 0-1.769.283l-.212 1.274s.637-.283 1.627-.283c.496 0 .92.07.92.495 0 .283-.07.354-.07.354h-.637c-1.274 0-2.618.495-2.618 2.193 0 1.345.849 1.628 1.415 1.628.99 0 1.486-.637 1.557-.637l-.071.566h1.203l.566-4.033c0-1.769-1.415-1.84-1.91-1.84m.283 3.255c0 .212-.141 1.415-.99 1.415-.425 0-.566-.354-.566-.566 0-.354.212-.849 1.344-.849zM14.01 17.477c.353 0 2.193.07 2.193-1.91 0-1.84-1.77-1.486-1.77-2.194 0-.353.284-.495.779-.495.212 0 .99.07.99.07l.213-1.344s-.495-.141-1.415-.141c-1.062 0-2.194.424-2.194 1.91 0 1.699 1.84 1.557 1.84 2.194 0 .424-.495.495-.85.495-.636 0-1.343-.212-1.343-.212l-.213 1.344c.142.142.566.283 1.77.283M43.16 10.401l-.282 1.982s-.566-.708-1.415-.708c-1.345 0-2.477 1.627-2.477 3.538 0 1.203.566 2.406 1.84 2.406.85 0 1.415-.567 1.415-.567l-.07.496h1.485l1.062-7.005zm-.707 3.821c0 .779-.353 1.84-1.203 1.84-.495 0-.778-.425-.778-1.203 0-1.203.495-1.91 1.203-1.91.495.07.778.424.778 1.273M2.689 17.406l.849-5.236.141 5.236h.99L6.58 12.17l-.778 5.236h1.556l1.203-7.005H6.156L4.67 14.718 4.599 10.4H2.476l-1.203 7.005z"/><path fill="#252525" d="M25.333 17.405c.424-2.406.495-4.387 1.556-4.033.142-.92.354-1.344.495-1.698h-.283c-.636 0-1.203.849-1.203.849l.142-.778h-1.415l-.92 5.66zM34.388 11.533c-.99 0-1.768.283-1.768.283l-.213 1.274s.637-.283 1.628-.283c.495 0 .92.07.92.495 0 .283-.071.354-.071.354h-.637c-1.274 0-2.618.495-2.618 2.193 0 1.345.849 1.628 1.415 1.628.99 0 1.486-.637 1.557-.637l-.071.566h1.344l.566-4.033c0-1.769-1.556-1.84-2.052-1.84m.354 3.255c0 .212-.141 1.415-.99 1.415-.425 0-.567-.354-.567-.566 0-.354.213-.849 1.345-.849zM37.573 17.405c.424-2.406.495-4.387 1.556-4.033.142-.92.354-1.344.496-1.698h-.283c-.637 0-1.203.849-1.203.849l.141-.778h-1.415l-.92 5.66z"/><path fill="#fff" d="M111.135 6.581h-3.043c-.92 0-1.627.283-2.052 1.203l-5.802 13.231h4.104s.708-1.769.849-2.193h5.024c.141.495.495 2.123.495 2.123h3.68zm-4.812 9.27c.354-.85 1.557-4.034 1.557-4.034 0 .07.354-.85.495-1.344l.283 1.273s.779 3.467.92 4.175h-3.255zM100.522 16.274c0 2.972-2.689 4.953-6.864 4.953-1.769 0-3.467-.354-4.386-.778l.566-3.255.495.212c1.273.566 2.123.779 3.68.779 1.131 0 2.334-.425 2.334-1.416 0-.636-.495-1.061-2.052-1.769-1.486-.707-3.467-1.84-3.467-3.891 0-2.83 2.76-4.74 6.651-4.74 1.486 0 2.76.282 3.538.636l-.566 3.113-.283-.283c-.708-.283-1.628-.566-2.972-.566-1.486.07-2.193.708-2.193 1.274 0 .637.849 1.132 2.193 1.769 2.264 1.061 3.326 2.264 3.326 3.962M65.992 6.722l.07-.283h6.086c.85 0 1.486.283 1.698 1.203l1.344 6.368c-1.344-3.396-4.457-6.155-9.198-7.288"/><path fill="#fff" d="m83.751 6.58-6.156 14.364h-4.174L69.883 8.915c2.547 1.628 4.67 4.175 5.448 5.944l.425 1.486 3.82-9.835h4.175zM85.38 6.51h3.892l-2.476 14.434h-3.892zM168.352 8.313h-7.288c.425 2.406 2.76 4.67 5.307 4.67h5.802c.071-.212.071-.566.071-.778 0-2.123-1.769-3.892-3.892-3.892M161.699 13.407v5.873h3.538v-3.113h3.113c1.698 0 3.184-1.203 3.68-2.76zM149.248 8.313V19.21h3.113s.779 0 1.203-.778c2.123-4.175 2.76-5.449 2.76-5.449h.424v6.227h3.538V8.313h-3.113s-.779.071-1.203.779c-1.769 3.608-2.76 5.448-2.76 5.448h-.424V8.313zM134.389 19.281V8.385h3.537s.991 0 1.557 1.556c1.415 4.104 1.557 4.67 1.557 4.67s.283-.99 1.556-4.67c.566-1.556 1.557-1.556 1.557-1.556h3.538V19.28h-3.538V13.41h-.424l-1.982 5.872h-1.556l-1.981-5.872h-.425v5.872z"/></svg>